<?xml version="1.0" encoding="us-ascii" standalone="no"?><svg xmlns="http://www.w3.org/2000/svg" xmlns:xlink="http://www.w3.org/1999/xlink" contentStyleType="text/css" height="567px" preserveAspectRatio="none" style="width:962px;height:567px;" version="1.1" viewBox="0 0 962 567" width="962px" zoomAndPan="magnify"><defs/><g><!--cluster box_pickup_application--><g id="cluster_box_pickup_application"><rect fill="none" height="477" rx="2.5" ry="2.5" style="stroke:#181818;stroke-width:1.0;" width="949" x="7" y="7"/><rect fill="none" height="10" style="stroke:#181818;stroke-width:1.0;" width="15" x="936" y="12"/><rect fill="none" height="2" style="stroke:#181818;stroke-width:1.0;" width="4" x="934" y="14"/><rect fill="none" height="2" style="stroke:#181818;stroke-width:1.0;" width="4" x="934" y="18"/><text fill="#000000" font-family="sans-serif" font-size="14" font-weight="bold" lengthAdjust="spacing" textLength="180" x="391.5" y="32.9951">box_pickup_application</text></g><!--entity frame--><g id="elem_frame"><rect fill="#F1F1F1" height="46.2969" rx="2.5" ry="2.5" style="stroke:#181818;stroke-width:0.5;" width="79" x="390" y="421.85"/><rect fill="#F1F1F1" height="10" style="stroke:#181818;stroke-width:0.5;" width="15" x="449" y="426.85"/><rect fill="#F1F1F1" height="2" style="stroke:#181818;stroke-width:0.5;" width="4" x="447" y="428.85"/><rect fill="#F1F1F1" height="2" style="stroke:#181818;stroke-width:0.5;" width="4" x="447" y="432.85"/><text fill="#000000" font-family="sans-serif" font-size="14" lengthAdjust="spacing" textLength="39" x="405" y="454.8451">frame</text></g><!--entity placement--><g id="elem_placement"><ellipse cx="581.5" cy="401" fill="#F1F1F1" rx="8" ry="8" style="stroke:#181818;stroke-width:0.5;"/><text fill="#000000" font-family="sans-serif" font-size="14" lengthAdjust="spacing" textLength="73" x="545" y="430.9951">placement</text></g><!--entity robot--><g id="elem_robot"><rect fill="#F1F1F1" height="46.2969" rx="2.5" ry="2.5" style="stroke:#181818;stroke-width:0.5;" width="77" x="543" y="93.85"/><rect fill="#F1F1F1" height="10" style="stroke:#181818;stroke-width:0.5;" width="15" x="600" y="98.85"/><rect fill="#F1F1F1" height="2" style="stroke:#181818;stroke-width:0.5;" width="4" x="598" y="100.85"/><rect fill="#F1F1F1" height="2" style="stroke:#181818;stroke-width:0.5;" width="4" x="598" y="104.85"/><text fill="#000000" font-family="sans-serif" font-size="14" lengthAdjust="spacing" textLength="37" x="558" y="126.8451">robot</text></g><!--entity input_0--><g id="elem_input_0"><ellipse cx="429.5" cy="108" fill="#F1F1F1" rx="8" ry="8" style="stroke:#181818;stroke-width:0.5;"/><text fill="#000000" font-family="sans-serif" font-size="14" lengthAdjust="spacing" textLength="51" x="404" y="137.9951">input_0</text></g><!--entity output_0--><g id="elem_output_0"><ellipse cx="894.5" cy="186" fill="#F1F1F1" rx="8" ry="8" style="stroke:#181818;stroke-width:0.5;"/><text fill="#000000" font-family="sans-serif" font-size="14" lengthAdjust="spacing" textLength="62" x="863.5" y="215.9951">output_0</text></g><!--entity end\neffector--><g id="elem_end\neffector"><ellipse cx="325.5" cy="90" fill="#F1F1F1" rx="8" ry="8" style="stroke:#181818;stroke-width:0.5;"/><text fill="#000000" font-family="sans-serif" font-size="14" lengthAdjust="spacing" textLength="27" x="299" y="119.9951">end</text><text fill="#000000" font-family="sans-serif" font-size="14" lengthAdjust="spacing" textLength="53" x="299" y="136.292">effector</text></g><!--entity sensor--><g id="elem_sensor"><rect fill="#F1F1F1" height="46.2969" rx="2.5" ry="2.5" style="stroke:#181818;stroke-width:0.5;" width="88" x="173" y="153.85"/><rect fill="#F1F1F1" height="10" style="stroke:#181818;stroke-width:0.5;" width="15" x="241" y="158.85"/><rect fill="#F1F1F1" height="2" style="stroke:#181818;stroke-width:0.5;" width="4" x="239" y="160.85"/><rect fill="#F1F1F1" height="2" style="stroke:#181818;stroke-width:0.5;" width="4" x="239" y="164.85"/><text fill="#000000" font-family="sans-serif" font-size="14" lengthAdjust="spacing" textLength="48" x="188" y="186.8451">sensor</text></g><!--entity sensor\nposition--><g id="elem_sensor\nposition"><ellipse cx="429.5" cy="217" fill="#F1F1F1" rx="8" ry="8" style="stroke:#181818;stroke-width:0.5;"/><text fill="#000000" font-family="sans-serif" font-size="14" lengthAdjust="spacing" textLength="48" x="402" y="246.9951">sensor</text><text fill="#000000" font-family="sans-serif" font-size="14" lengthAdjust="spacing" textLength="55" x="402" y="263.292">position</text></g><!--entity cabinet--><g id="elem_cabinet"><rect fill="#F1F1F1" height="46.2969" rx="2.5" ry="2.5" style="stroke:#181818;stroke-width:0.5;" width="91" x="849" y="299.85"/><rect fill="#F1F1F1" height="10" style="stroke:#181818;stroke-width:0.5;" width="15" x="920" y="304.85"/><rect fill="#F1F1F1" height="2" style="stroke:#181818;stroke-width:0.5;" width="4" x="918" y="306.85"/><rect fill="#F1F1F1" height="2" style="stroke:#181818;stroke-width:0.5;" width="4" x="918" y="310.85"/><text fill="#000000" font-family="sans-serif" font-size="14" lengthAdjust="spacing" textLength="51" x="864" y="332.8451">cabinet</text></g><!--entity robot\npower--><g id="elem_robot\npower"><ellipse cx="741" cy="198" fill="#F1F1F1" rx="8" ry="8" style="stroke:#181818;stroke-width:0.5;"/><text fill="#000000" font-family="sans-serif" font-size="14" lengthAdjust="spacing" textLength="37" x="719.5" y="227.9951">robot</text><text fill="#000000" font-family="sans-serif" font-size="14" lengthAdjust="spacing" textLength="43" x="719.5" y="244.292">power</text></g><!--entity conveyor\npower--><g id="elem_conveyor\npower"><ellipse cx="741" cy="323" fill="#F1F1F1" rx="8" ry="8" style="stroke:#181818;stroke-width:0.5;"/><text fill="#000000" font-family="sans-serif" font-size="14" lengthAdjust="spacing" textLength="63" x="709.5" y="352.9951">conveyor</text><text fill="#000000" font-family="sans-serif" font-size="14" lengthAdjust="spacing" textLength="43" x="709.5" y="369.292">power</text></g><!--entity conveyor--><g id="elem_conveyor"><rect fill="#F1F1F1" height="46.2969" rx="2.5" ry="2.5" style="stroke:#181818;stroke-width:0.5;" width="103" x="530" y="308.85"/><rect fill="#F1F1F1" height="10" style="stroke:#181818;stroke-width:0.5;" width="15" x="613" y="313.85"/><rect fill="#F1F1F1" height="2" style="stroke:#181818;stroke-width:0.5;" width="4" x="611" y="315.85"/><rect fill="#F1F1F1" height="2" style="stroke:#181818;stroke-width:0.5;" width="4" x="611" y="319.85"/><text fill="#000000" font-family="sans-serif" font-size="14" lengthAdjust="spacing" textLength="63" x="545" y="341.8451">conveyor</text></g><!--entity box\nposition--><g id="elem_box\nposition"><ellipse cx="429.5" cy="342" fill="#F1F1F1" rx="8" ry="8" style="stroke:#181818;stroke-width:0.5;"/><text fill="#000000" font-family="sans-serif" font-size="14" lengthAdjust="spacing" textLength="25" x="402" y="371.9951">box</text><text fill="#000000" font-family="sans-serif" font-size="14" lengthAdjust="spacing" textLength="55" x="402" y="388.292">position</text></g><!--entity box--><g id="elem_box"><rect fill="#F1F1F1" height="46.2969" rx="2.5" ry="2.5" style="stroke:#181818;stroke-width:0.5;" width="65" x="184.5" y="251.85"/><rect fill="#F1F1F1" height="10" style="stroke:#181818;stroke-width:0.5;" width="15" x="229.5" y="256.85"/><rect fill="#F1F1F1" height="2" style="stroke:#181818;stroke-width:0.5;" width="4" x="227.5" y="258.85"/><rect fill="#F1F1F1" height="2" style="stroke:#181818;stroke-width:0.5;" width="4" x="227.5" y="262.85"/><text fill="#000000" font-family="sans-serif" font-size="14" lengthAdjust="spacing" textLength="25" x="199.5" y="284.8451">box</text></g><!--entity shape--><g id="elem_shape"><ellipse cx="67.5" cy="189" fill="#F1F1F1" rx="8" ry="8" style="stroke:#181818;stroke-width:0.5;"/><text fill="#000000" font-family="sans-serif" font-size="14" lengthAdjust="spacing" textLength="43" x="46" y="218.9951">shape</text></g><!--entity gripper--><g id="elem_gripper"><rect fill="#F1F1F1" height="46.2969" rx="2.5" ry="2.5" style="stroke:#181818;stroke-width:0.5;" width="89" x="23" y="94.85"/><rect fill="#F1F1F1" height="10" style="stroke:#181818;stroke-width:0.5;" width="15" x="92" y="99.85"/><rect fill="#F1F1F1" height="2" style="stroke:#181818;stroke-width:0.5;" width="4" x="90" y="101.85"/><rect fill="#F1F1F1" height="2" style="stroke:#181818;stroke-width:0.5;" width="4" x="90" y="105.85"/><text fill="#000000" font-family="sans-serif" font-size="14" lengthAdjust="spacing" textLength="49" x="38" y="127.8451">gripper</text></g><!--entity building--><g id="elem_building"><rect fill="#F1F1F1" height="46.2969" rx="2.5" ry="2.5" style="stroke:#181818;stroke-width:0.5;" width="94" x="694" y="501.85"/><rect fill="#F1F1F1" height="10" style="stroke:#181818;stroke-width:0.5;" width="15" x="768" y="506.85"/><rect fill="#F1F1F1" height="2" style="stroke:#181818;stroke-width:0.5;" width="4" x="766" y="508.85"/><rect fill="#F1F1F1" height="2" style="stroke:#181818;stroke-width:0.5;" width="4" x="766" y="512.85"/><text fill="#000000" font-family="sans-serif" font-size="14" lengthAdjust="spacing" textLength="54" x="709" y="534.8451">building</text></g><!--entity energy--><g id="elem_energy"><ellipse cx="894.5" cy="516" fill="#F1F1F1" rx="8" ry="8" style="stroke:#181818;stroke-width:0.5;"/><text fill="#000000" font-family="sans-serif" font-size="14" lengthAdjust="spacing" textLength="48" x="870.5" y="545.9951">energy</text></g><!--entity location--><g id="elem_location"><ellipse cx="581.5" cy="529" fill="#F1F1F1" rx="8" ry="8" style="stroke:#181818;stroke-width:0.5;"/><text fill="#000000" font-family="sans-serif" font-size="14" lengthAdjust="spacing" textLength="54" x="554.5" y="558.9951">location</text></g><!--link frame to placement--><g id="link_frame_placement"><path d="M469.13,433.67 C504.02,423.43 552.78,409.13 572.12,403.46 " fill="none" id="frame-placement" style="stroke:#181818;stroke-width:1.0;"/></g><!--link input_0 to robot--><g id="link_input_0_robot"><path d="M438.14,108.46 C457.07,109.59 507.13,112.6 542.52,114.72 " fill="none" id="input_0-robot" style="stroke:#181818;stroke-width:1.0;"/></g><!--link output_0 to robot--><g id="link_output_0_robot"><path d="M885.17,180.65 C867.86,169.86 826.44,145.59 788,135 C731.03,119.3 662.13,116.36 620.34,116.26 " fill="none" id="output_0-robot" style="stroke:#181818;stroke-width:1.0;"/></g><!--link end\neffector to robot--><g id="link_end\neffector_robot"><path d="M334.33,85.08 C345.95,78.09 368.68,65.64 390,61 C424.31,53.54 434.84,52.9 469,61 C495.77,67.34 523.42,81.18 544.49,93.51 " fill="none" id="end\neffector-robot" style="stroke:#181818;stroke-width:1.0;"/></g><!--link sensor to input_0--><g id="link_sensor_input_0"><path d="M261.26,181.8 C290.27,183.3 328.74,181.92 360,169 C387.37,157.69 407.427,135.331 418.377,121.371 " fill="none" id="sensor-to-input_0" style="stroke:#181818;stroke-width:1.0;"/><polygon fill="#181818" points="422.08,116.65,413.3781,121.2627,418.9941,120.5841,419.6727,126.2001,422.08,116.65" style="stroke:#181818;stroke-width:1.0;"/><text fill="#000000" font-family="sans-serif" font-size="13" lengthAdjust="spacing" textLength="67" x="292" y="165.0669">connected</text></g><!--link sensor to sensor\nposition--><g id="link_sensor_sensor\nposition"><path d="M261.39,195.91 C270.98,199.45 281.21,202.74 291,205 C339.33,216.15 393.4,217.1213 414.63,217.0813 " fill="none" id="sensor-to-sensor\nposition" style="stroke:#181818;stroke-width:1.0;"/><polygon fill="#181818" points="420.63,217.07,411.6225,213.087,415.63,217.0794,411.6376,221.087,420.63,217.07" style="stroke:#181818;stroke-width:1.0;"/></g><!--link robot to placement--><g id="link_robot_placement"><path d="M567.73,140.46 C548,175.58 512.62,244.55 499.5,308.5 C495.3,328.96 489.03,337.42 499.5,355.5 C515.33,382.83 548.4203,393.4923 566.3503,397.7223 " fill="none" id="robot-to-placement" style="stroke:#181818;stroke-width:1.0;"/><polygon fill="#181818" points="572.19,399.1,564.3489,393.1403,567.3236,397.9519,562.512,400.9266,572.19,399.1" style="stroke:#181818;stroke-width:1.0;"/></g><!--link robot\npower to cabinet--><g id="link_robot\npower_cabinet"><path d="M749.72,204.37 C770.64,221.63 829.25,269.99 864.85,299.36 " fill="none" id="robot\npower-cabinet" style="stroke:#181818;stroke-width:1.0;"/></g><!--link conveyor\npower to cabinet--><g id="link_conveyor\npower_cabinet"><path d="M749.72,323 C767.69,323 813.45,323 848.56,323 " fill="none" id="conveyor\npower-cabinet" style="stroke:#181818;stroke-width:1.0;"/></g><!--reverse link placement to cabinet--><g id="link_placement_cabinet"><path d="M596.9655,402.0971 C625.5255,404.0871 714.6,408.07 788,385 C814.75,376.59 841.97,360.37 862.05,346.63 " fill="none" id="placement-backto-cabinet" style="stroke:#181818;stroke-width:1.0;"/><polygon fill="#181818" points="590.98,401.68,599.6802,406.2959,595.9679,402.0275,600.2363,398.3153,590.98,401.68" style="stroke:#181818;stroke-width:1.0;"/></g><!--link robot to robot\npower--><g id="link_robot_robot\npower"><path d="M620.23,136.4 C657.54,155.59 706.5634,180.8076 726.7434,191.1776 " fill="none" id="robot-to-robot\npower" style="stroke:#181818;stroke-width:1.0;"/><polygon fill="#181818" points="732.08,193.92,725.9033,186.2487,727.6328,191.6347,722.2468,193.3642,732.08,193.92" style="stroke:#181818;stroke-width:1.0;"/></g><!--link cabinet to output_0--><g id="link_cabinet_output_0"><path d="M894.5,299.45 C894.5,264.74 894.5,236.02 894.5,201.31 " fill="none" id="cabinet-to-output_0" style="stroke:#181818;stroke-width:1.0;"/><polygon fill="#181818" points="894.5,195.31,890.5,204.31,894.5,200.31,898.5,204.31,894.5,195.31" style="stroke:#181818;stroke-width:1.0;"/></g><!--link sensor\nposition to conveyor--><g id="link_sensor\nposition_conveyor"><path d="M438.14,222.86 C458.38,238.38 514.23,281.19 549.66,308.35 " fill="none" id="sensor\nposition-conveyor" style="stroke:#181818;stroke-width:1.0;"/></g><!--link box\nposition to conveyor--><g id="link_box\nposition_conveyor"><path d="M438.14,341.49 C454.86,340.38 495.87,337.64 529.6,335.39 " fill="none" id="box\nposition-conveyor" style="stroke:#181818;stroke-width:1.0;"/></g><!--link conveyor to placement--><g id="link_conveyor_placement"><path d="M581.5,355.27 C581.5,367.37 581.5,373.47 581.5,385.57 " fill="none" id="conveyor-to-placement" style="stroke:#181818;stroke-width:1.0;"/><polygon fill="#181818" points="581.5,391.57,585.5,382.57,581.5,386.57,577.5,382.57,581.5,391.57" style="stroke:#181818;stroke-width:1.0;"/></g><!--link conveyor to conveyor\npower--><g id="link_conveyor_conveyor\npower"><path d="M633.2,329.1 C669.17,327.05 708.1299,324.8237 726.0799,323.7937 " fill="none" id="conveyor-to-conveyor\npower" style="stroke:#181818;stroke-width:1.0;"/><polygon fill="#181818" points="732.07,323.45,722.8556,319.9722,727.0782,323.7364,723.3139,327.959,732.07,323.45" style="stroke:#181818;stroke-width:1.0;"/></g><!--link shape to box--><g id="link_shape_box"><path d="M76.85,193.87 C97.09,205.67 149.59,236.28 184,256.34 " fill="none" id="shape-box" style="stroke:#181818;stroke-width:1.0;"/></g><!--reverse link shape to gripper--><g id="link_shape_gripper"><path d="M67.5,173.57 C67.5,160.9 67.5,154.24 67.5,141.57 " fill="none" id="shape-backto-gripper" style="stroke:#181818;stroke-width:1.0;"/><polygon fill="#181818" points="67.5,179.57,71.5,170.57,67.5,174.57,63.5,170.57,67.5,179.57" style="stroke:#181818;stroke-width:1.0;"/></g><!--link box to box\nposition--><g id="link_box_box\nposition"><path d="M249.97,285.18 C299.89,301.06 387.7423,329.0312 415.0923,337.7312 " fill="none" id="box-to-box\nposition" style="stroke:#181818;stroke-width:1.0;"/><polygon fill="#181818" points="420.81,339.55,413.446,333.01,416.0453,338.0343,411.0209,340.6336,420.81,339.55" style="stroke:#181818;stroke-width:1.0;"/></g><!--link gripper to end\neffector--><g id="link_gripper_end\neffector"><path d="M112.22,113.22 C175.05,106.35 280.7056,94.793 310.8456,91.493 " fill="none" id="gripper-to-end\neffector" style="stroke:#181818;stroke-width:1.0;"/><polygon fill="#181818" points="316.81,90.84,307.4281,87.8433,311.8397,91.3842,308.2988,95.7958,316.81,90.84" style="stroke:#181818;stroke-width:1.0;"/></g><!--link building to energy--><g id="link_building_energy"><path d="M788.28,522.25 C822.74,520.2 866.84,517.58 885.05,516.5 " fill="none" id="building-energy" style="stroke:#181818;stroke-width:1.0;"/></g><!--link location to building--><g id="link_location_building"><path d="M590.1,528.81 C608.53,528.34 656.83,527.11 693.66,526.18 " fill="none" id="location-building" style="stroke:#181818;stroke-width:1.0;"/></g><!--link frame to location--><g id="link_frame_location"><path d="M469.13,466.63 C504.37,486.37 548.5154,511.0876 567.4554,521.6976 " fill="none" id="frame-to-location" style="stroke:#181818;stroke-width:1.0;"/><polygon fill="#181818" points="572.69,524.63,566.793,516.7417,568.3278,522.1864,562.8832,523.7212,572.69,524.63" style="stroke:#181818;stroke-width:1.0;"/></g><!--link cabinet to energy--><g id="link_cabinet_energy"><path d="M894.5,346.31 C894.5,399.73 894.5,447.15 894.5,500.58 " fill="none" id="cabinet-to-energy" style="stroke:#181818;stroke-width:1.0;"/><polygon fill="#181818" points="894.5,506.58,898.5,497.58,894.5,501.58,890.5,497.58,894.5,506.58" style="stroke:#181818;stroke-width:1.0;"/></g><!--SRC=[VLBBRiCW4Bpp5IjVsXuizTn3B_sC98emNZieX4KOjusg_dkNXrz9L1yiO6PsPc67ixPEUdc1HgfpxscqxGSPyX2yj0D3Q8Cms0K815xtfm2jzgY29YkUXbbkjCLmTGZamuc4K7HnP5aC3NqVdLRdqHsbSqOh6RNm8u2_zDjrN04FQVty0iv8XPSehSSQ4fPfdXeACusTnt1yXRg614pdD8R7G8MstLliEavFlbhmN7r0Ev3FvVEQ6U-ppHieifQbsDvIghpUMqU3ZirLIs_90PWqTrNib6pYbStjL8aPQtnX3bSOCu7zF_6QVHvm4g_iuysjBLT9OjwDrLRd6PzkSFL2a_SIzwxd5AVGPXO__d-KQGDtQHSa1hvjlTmXLvy33IV9qyS6VBWAtdlj79RSPGEruQ99i31PbhssaRUwY6-dIFmAiMj6RLfj-uCGd0Gj-luQJM02uh6XClbrkm94ckzKUIA8pMFaQdy0]--></g></svg>