<?xml version="1.0" encoding="UTF-8" standalone="no"?>
<!DOCTYPE svg PUBLIC "-//W3C//DTD SVG 1.1//EN"
 "http://www.w3.org/Graphics/SVG/1.1/DTD/svg11.dtd">
<!-- Generated by graphviz version 8.0.5 (20230430.1635)
 -->
<!-- Title: NNN Pages: 1 -->
<svg width="572pt" height="254pt"
 viewBox="0.00 0.00 572.44 254.00" xmlns="http://www.w3.org/2000/svg" xmlns:xlink="http://www.w3.org/1999/xlink">
<g id="graph0" class="graph" transform="scale(1 1) rotate(0) translate(4 250)">
<title>NNN</title>
<!-- start -->
<g id="node1" class="node">
<title>start</title>
<ellipse fill="none" stroke="black" cx="37.8" cy="-43.84" rx="33.8" ry="33.8"/>
<ellipse fill="none" stroke="black" cx="37.8" cy="-43.84" rx="37.8" ry="37.8"/>
<text text-anchor="middle" x="37.8" y="-38.94" font-family="Times,serif" font-size="14.00">start</text>
</g>
<!-- create_setup -->
<g id="node2" class="node">
<title>create_setup</title>
<ellipse fill="none" stroke="black" cx="155.03" cy="-43.84" rx="42.43" ry="42.43"/>
<text text-anchor="middle" x="155.03" y="-47.34" font-family="Times,serif" font-size="14.00">create</text>
<text text-anchor="middle" x="155.03" y="-30.54" font-family="Times,serif" font-size="14.00">setup</text>
</g>
<!-- start&#45;&gt;create_setup -->
<g id="edge1" class="edge">
<title>start&#45;&gt;create_setup</title>
<path fill="none" stroke="black" d="M75.89,-43.84C84.03,-43.84 92.8,-43.84 101.42,-43.84"/>
<polygon fill="black" stroke="black" points="101.2,-47.34 111.2,-43.84 101.2,-40.34 101.2,-47.34"/>
</g>
<!-- create_setup&#45;&gt;create_setup -->
<g id="edge3" class="edge">
<title>create_setup&#45;&gt;create_setup</title>
<path fill="none" stroke="black" d="M143.7,-85.08C144.35,-96 148.12,-104.27 155.03,-104.27 159.45,-104.27 162.58,-100.87 164.44,-95.56"/>
<polygon fill="black" stroke="black" points="168,-96.54 166.35,-86.08 161.11,-95.29 168,-96.54"/>
<text text-anchor="middle" x="155.03" y="-124.57" font-family="Times,serif" font-size="14.00">while</text>
<text text-anchor="middle" x="155.03" y="-107.77" font-family="Times,serif" font-size="14.00">reading</text>
</g>
<!-- work_locally -->
<g id="node3" class="node">
<title>work_locally</title>
<ellipse fill="none" stroke="black" cx="278.29" cy="-43.84" rx="43.84" ry="43.84"/>
<text text-anchor="middle" x="278.29" y="-47.34" font-family="Times,serif" font-size="14.00">work</text>
<text text-anchor="middle" x="278.29" y="-30.54" font-family="Times,serif" font-size="14.00">locally</text>
</g>
<!-- create_setup&#45;&gt;work_locally -->
<g id="edge2" class="edge">
<title>create_setup&#45;&gt;work_locally</title>
<path fill="none" stroke="black" d="M197.76,-43.84C206.04,-43.84 214.85,-43.84 223.48,-43.84"/>
<polygon fill="black" stroke="black" points="223.24,-47.34 233.24,-43.84 223.24,-40.34 223.24,-47.34"/>
</g>
<!-- excersize -->
<g id="node4" class="node">
<title>excersize</title>
<ellipse fill="none" stroke="black" cx="415.69" cy="-137.84" rx="56.56" ry="56.56"/>
<text text-anchor="middle" x="415.69" y="-132.94" font-family="Times,serif" font-size="14.00">excersize</text>
</g>
<!-- work_locally&#45;&gt;excersize -->
<g id="edge4" class="edge">
<title>work_locally&#45;&gt;excersize</title>
<path fill="none" stroke="black" d="M314.87,-68.54C328.62,-78.09 344.68,-89.23 359.85,-99.76"/>
<polygon fill="black" stroke="black" points="357.44,-103.05 367.65,-105.87 361.43,-97.3 357.44,-103.05"/>
</g>
<!-- use -->
<g id="node5" class="node">
<title>use</title>
<ellipse fill="none" stroke="black" cx="536.85" cy="-43.84" rx="27.59" ry="27.59"/>
<text text-anchor="middle" x="536.85" y="-38.94" font-family="Times,serif" font-size="14.00">use</text>
</g>
<!-- work_locally&#45;&gt;use -->
<g id="edge7" class="edge">
<title>work_locally&#45;&gt;use</title>
<path fill="none" stroke="black" d="M322.23,-38.65C371.52,-36.49 451.57,-36.57 498.41,-38.91"/>
<polygon fill="black" stroke="black" points="498.1,-42.45 508.29,-39.53 498.5,-35.46 498.1,-42.45"/>
</g>
<!-- excersize&#45;&gt;excersize -->
<g id="edge5" class="edge">
<title>excersize&#45;&gt;excersize</title>
<path fill="none" stroke="black" d="M402.16,-193.12C403.63,-204.36 408.14,-212.4 415.69,-212.4 420.65,-212.4 424.3,-208.94 426.63,-203.38"/>
<polygon fill="black" stroke="black" points="430.17,-204.67 429.23,-194.12 423.38,-202.95 430.17,-204.67"/>
<text text-anchor="middle" x="415.69" y="-232.7" font-family="Times,serif" font-size="14.00">again and</text>
<text text-anchor="middle" x="415.69" y="-215.9" font-family="Times,serif" font-size="14.00">again</text>
</g>
<!-- excersize&#45;&gt;use -->
<g id="edge6" class="edge">
<title>excersize&#45;&gt;use</title>
<path fill="none" stroke="black" d="M460.72,-103.11C475.84,-91.18 492.4,-78.12 506.11,-67.3"/>
<polygon fill="black" stroke="black" points="507.98,-69.49 513.66,-60.55 503.65,-64 507.98,-69.49"/>
</g>
<!-- use&#45;&gt;work_locally -->
<g id="edge8" class="edge">
<title>use&#45;&gt;work_locally</title>
<path fill="none" stroke="black" d="M509.29,-48.15C467.83,-50.89 386.92,-51.32 332.98,-49.45"/>
<polygon fill="black" stroke="black" points="333.36,-45.93 323.23,-49.03 333.09,-52.92 333.36,-45.93"/>
</g>
</g>
</svg>
