<?xml version="1.0" encoding="UTF-8" standalone="no"?>
<!DOCTYPE svg PUBLIC "-//W3C//DTD SVG 1.1//EN"
 "http://www.w3.org/Graphics/SVG/1.1/DTD/svg11.dtd">
<!-- Generated by graphviz version 9.0.0 (20230911.1827)
 -->
<!-- Title: NNN Pages: 1 -->
<svg width="572pt" height="254pt"
 viewBox="0.00 0.00 572.44 254.00" xmlns="http://www.w3.org/2000/svg" xmlns:xlink="http://www.w3.org/1999/xlink">
<g id="graph0" class="graph" transform="scale(1 1) rotate(0) translate(4 250)">
<title>NNN</title>
<!-- start -->
<g id="node1" class="node">
<title>start</title>
<ellipse fill="none" stroke="black" cx="37.8" cy="-43.84" rx="33.8" ry="33.8"/>
<ellipse fill="none" stroke="black" cx="37.8" cy="-43.84" rx="37.8" ry="37.8"/>
<text text-anchor="middle" x="37.8" y="-38.94" font-family="Times,serif" font-size="14.00">start</text>
</g>
<!-- create_setup -->
<g id="node2" class="node">
<title>create_setup</title>
<ellipse fill="none" stroke="black" cx="155.03" cy="-43.84" rx="42.43" ry="42.43"/>
<text text-anchor="middle" x="155.03" y="-47.34" font-family="Times,serif" font-size="14.00">create</text>
<text text-anchor="middle" x="155.03" y="-30.54" font-family="Times,serif" font-size="14.00">setup</text>
</g>
<!-- start&#45;&gt;create_setup -->
<g id="edge1" class="edge">
<title>start&#45;&gt;create_setup</title>
<path fill="none" stroke="black" d="M75.89,-43.84C83.85,-43.84 92.41,-43.84 100.85,-43.84"/>
<polygon fill="black" stroke="black" points="100.69,-47.34 110.69,-43.84 100.69,-40.34 100.69,-47.34"/>
</g>
<!-- create_setup&#45;&gt;create_setup -->
<g id="edge3" class="edge">
<title>create_setup&#45;&gt;create_setup</title>
<path fill="none" stroke="black" d="M143.7,-85.08C144.35,-96 148.12,-104.27 155.03,-104.27 159.23,-104.27 162.28,-101.2 164.16,-96.32"/>
<polygon fill="black" stroke="black" points="167.58,-97.05 166.06,-86.56 160.71,-95.71 167.58,-97.05"/>
<text text-anchor="middle" x="155.03" y="-124.57" font-family="Times,serif" font-size="14.00">while</text>
<text text-anchor="middle" x="155.03" y="-107.77" font-family="Times,serif" font-size="14.00">reading</text>
</g>
<!-- work_locally -->
<g id="node3" class="node">
<title>work_locally</title>
<ellipse fill="none" stroke="black" cx="278.29" cy="-43.84" rx="43.84" ry="43.84"/>
<text text-anchor="middle" x="278.29" y="-47.34" font-family="Times,serif" font-size="14.00">work</text>
<text text-anchor="middle" x="278.29" y="-30.54" font-family="Times,serif" font-size="14.00">locally</text>
</g>
<!-- create_setup&#45;&gt;work_locally -->
<g id="edge2" class="edge">
<title>create_setup&#45;&gt;work_locally</title>
<path fill="none" stroke="black" d="M197.76,-43.84C205.86,-43.84 214.46,-43.84 222.9,-43.84"/>
<polygon fill="black" stroke="black" points="222.73,-47.34 232.73,-43.84 222.73,-40.34 222.73,-47.34"/>
</g>
<!-- excersize -->
<g id="node4" class="node">
<title>excersize</title>
<ellipse fill="none" stroke="black" cx="415.69" cy="-137.84" rx="56.56" ry="56.56"/>
<text text-anchor="middle" x="415.69" y="-132.94" font-family="Times,serif" font-size="14.00">excersize</text>
</g>
<!-- work_locally&#45;&gt;excersize -->
<g id="edge4" class="edge">
<title>work_locally&#45;&gt;excersize</title>
<path fill="none" stroke="black" d="M314.87,-68.54C328.49,-78 344.38,-89.03 359.42,-99.47"/>
<polygon fill="black" stroke="black" points="357.19,-102.18 367.4,-105.01 361.19,-96.43 357.19,-102.18"/>
</g>
<!-- use -->
<g id="node5" class="node">
<title>use</title>
<ellipse fill="none" stroke="black" cx="536.85" cy="-43.84" rx="27.59" ry="27.59"/>
<text text-anchor="middle" x="536.85" y="-38.94" font-family="Times,serif" font-size="14.00">use</text>
</g>
<!-- work_locally&#45;&gt;use -->
<g id="edge7" class="edge">
<title>work_locally&#45;&gt;use</title>
<path fill="none" stroke="black" d="M322.23,-38.65C371.31,-36.5 450.89,-36.57 497.81,-38.88"/>
<polygon fill="black" stroke="black" points="497.59,-42.37 507.77,-39.44 497.99,-35.38 497.59,-42.37"/>
</g>
<!-- excersize&#45;&gt;excersize -->
<g id="edge5" class="edge">
<title>excersize&#45;&gt;excersize</title>
<path fill="none" stroke="black" d="M402.16,-193.12C403.63,-204.36 408.14,-212.4 415.69,-212.4 420.41,-212.4 423.95,-209.26 426.29,-204.16"/>
<polygon fill="black" stroke="black" points="429.65,-205.15 428.84,-194.58 422.89,-203.34 429.65,-205.15"/>
<text text-anchor="middle" x="415.69" y="-232.7" font-family="Times,serif" font-size="14.00">again and</text>
<text text-anchor="middle" x="415.69" y="-215.9" font-family="Times,serif" font-size="14.00">again</text>
</g>
<!-- excersize&#45;&gt;use -->
<g id="edge6" class="edge">
<title>excersize&#45;&gt;use</title>
<path fill="none" stroke="black" d="M460.72,-103.11C475.7,-91.29 492.08,-78.37 505.72,-67.61"/>
<polygon fill="black" stroke="black" points="507.79,-70.43 513.48,-61.49 503.46,-64.94 507.79,-70.43"/>
</g>
<!-- use&#45;&gt;work_locally -->
<g id="edge8" class="edge">
<title>use&#45;&gt;work_locally</title>
<path fill="none" stroke="black" d="M509.29,-48.15C468,-50.88 387.59,-51.32 333.65,-49.48"/>
<polygon fill="black" stroke="black" points="333.87,-45.98 323.75,-49.09 333.6,-52.98 333.87,-45.98"/>
</g>
</g>
</svg>
